{
 "cells": [
  {
   "cell_type": "code",
   "execution_count": null,
   "id": "07d15da9",
   "metadata": {},
   "outputs": [],
   "source": [
    "import cv2\n",
    "import numpy as np\n",
    "cap = cv2.VideoCapture(1)\n",
    "contador=0\n",
    "while True:\n",
    "    ret,frame = cap.read()\t#capture frame_by_frame\n",
    "    gray = cv2.cvtColor(frame,cv2.COLOR_BGR2GRAY)\n",
    "    cv2.imshow('frame',gray)\n",
    "    cv2.imshow('color',frame)\n",
    "    if cv2.waitKey(1)&0XFF ==ord('q'):\n",
    "        break \n",
    "    if contador>100:\n",
    "        break\n",
    "    contador+=1\n",
    "cap.release()\n",
    "cv2.destroyAllWindows()\n"
   ]
  },
  {
   "cell_type": "code",
   "execution_count": null,
   "id": "3241f056",
   "metadata": {},
   "outputs": [],
   "source": [
    "! ffmpeg -probesize 500000 -f alsa -ac 2 -input_format yuyv422 -f v4l2 -r 10 -i /dev/video1 -c:v libx264 -pix_fmt yuv420p -vf format=yuv420p -preset ultrafast -g 20 -b:v 2500k -c:a aac -ar 44100 -threads 0 -bufsize 512k -f flv rtmp://tankrobotmanagement-tankrobotmanagement-euno.channel.media.azure.net:1935/live/3f37b2cd29d3446f9916d7a2f91c6021"
   ]
  },
  {
   "cell_type": "code",
   "execution_count": 5,
   "id": "89b1107c",
   "metadata": {},
   "outputs": [
    {
     "name": "stdout",
     "output_type": "stream",
     "text": [
      "\u001b[0;35m[video4linux2,v4l2 @ 0xf333a0] \u001b[0mThe driver changed the time per frame from 1/10 to 1/15\n",
      "Input #0, video4linux2,v4l2, from '/dev/video1':\n",
      "  Duration: N/A, start: 1655.176157, bitrate: 73728 kb/s\n",
      "    Stream #0:0: Video: rawvideo (YUY2 / 0x32595559), yuyv422, 640x480, 73728 kb/s, 15 fps, 15 tbr, 1000k tbn, 1000k tbc\n",
      "\u001b[1;31mrtmp://57657ade3771422db2f10cd29d0010c7.channel.media.azure.net:1935/live/1b8bfb681c0b4f0c8091160c5f93bbb9/stream1: Input/output error\n",
      "\u001b[0m"
     ]
    }
   ],
   "source": [
    "! ffmpeg -f alsa -ac 2 -input_format yuyv422 -f v4l2 -r 10 -i /dev/video1 -c:v libx264 -pix_fmt yuv420p -vf format=yuv420p -preset ultrafast -g 20 -b:v 2500k -c:a aac -ar 44100 -threads 0 -hide_banner -bufsize 512k -hide_banner -f flv rtmp://57657ade3771422db2f10cd29d0010c7.channel.media.azure.net:1935/live/1b8bfb681c0b4f0c8091160c5f93bbb9/stream1\n"
   ]
  },
  {
   "cell_type": "code",
   "execution_count": 7,
   "id": "76a30074",
   "metadata": {},
   "outputs": [
    {
     "name": "stdout",
     "output_type": "stream",
     "text": [
      "ffmpeg version 4.1.8-0+deb10u1+rpt1 Copyright (c) 2000-2021 the FFmpeg developers\r\n",
      "  built with gcc 8 (Raspbian 8.3.0-6+rpi1)\r\n",
      "  configuration: --prefix=/usr --extra-version=0+deb10u1+rpt1 --toolchain=hardened --incdir=/usr/include/arm-linux-gnueabihf --enable-gpl --disable-stripping --enable-avresample --disable-filter=resample --enable-avisynth --enable-gnutls --enable-ladspa --enable-libaom --enable-libass --enable-libbluray --enable-libbs2b --enable-libcaca --enable-libcdio --enable-libcodec2 --enable-libflite --enable-libfontconfig --enable-libfreetype --enable-libfribidi --enable-libgme --enable-libgsm --enable-libjack --enable-libmp3lame --enable-libmysofa --enable-libopenjpeg --enable-libopenmpt --enable-libopus --enable-libpulse --enable-librsvg --enable-librubberband --enable-libshine --enable-libsnappy --enable-libsoxr --enable-libspeex --enable-libssh --enable-libtheora --enable-libtwolame --enable-libvidstab --enable-libvorbis --enable-libvpx --enable-libwavpack --enable-libwebp --enable-libx265 --enable-libxml2 --enable-libxvid --enable-libzmq --enable-libzvbi --enable-lv2 --enable-omx --enable-openal --enable-opengl --enable-sdl2 --enable-omx-rpi --enable-mmal --enable-neon --enable-rpi --enable-vout-drm --enable-v4l2-request --enable-libudev --enable-libdc1394 --enable-libdrm --enable-libiec61883 --enable-chromaprint --enable-frei0r --enable-libx264 --enable-shared --libdir=/usr/lib/arm-linux-gnueabihf --cpu=arm1176jzf-s --arch=arm\r\n",
      "  WARNING: library configuration mismatch\r\n",
      "  avutil      configuration: --prefix=/usr --extra-version=0+deb10u1+rpt1 --toolchain=hardened --incdir=/usr/include/arm-linux-gnueabihf --enable-gpl --disable-stripping --enable-avresample --disable-filter=resample --enable-avisynth --enable-gnutls --enable-ladspa --enable-libaom --enable-libass --enable-libbluray --enable-libbs2b --enable-libcaca --enable-libcdio --enable-libcodec2 --enable-libflite --enable-libfontconfig --enable-libfreetype --enable-libfribidi --enable-libgme --enable-libgsm --enable-libjack --enable-libmp3lame --enable-libmysofa --enable-libopenjpeg --enable-libopenmpt --enable-libopus --enable-libpulse --enable-librsvg --enable-librubberband --enable-libshine --enable-libsnappy --enable-libsoxr --enable-libspeex --enable-libssh --enable-libtheora --enable-libtwolame --enable-libvidstab --enable-libvorbis --enable-libvpx --enable-libwavpack --enable-libwebp --enable-libx265 --enable-libxml2 --enable-libxvid --enable-libzmq --enable-libzvbi --enable-lv2 --enable-omx --enable-openal --enable-opengl --enable-sdl2 --enable-omx-rpi --enable-mmal --enable-neon --enable-rpi --enable-vout-drm --enable-v4l2-request --enable-libudev --enable-libdc1394 --enable-libdrm --enable-libiec61883 --enable-chromaprint --enable-frei0r --enable-libx264 --libdir=/usr/lib/arm-linux-gnueabihf/neon/vfp --cpu=cortex-a7 --arch=armv6t2 --disable-thumb --enable-shared --disable-doc --disable-programs\r\n",
      "  avcodec     configuration: --prefix=/usr --extra-version=0+deb10u1+rpt1 --toolchain=hardened --incdir=/usr/include/arm-linux-gnueabihf --enable-gpl --disable-stripping --enable-avresample --disable-filter=resample --enable-avisynth --enable-gnutls --enable-ladspa --enable-libaom --enable-libass --enable-libbluray --enable-libbs2b --enable-libcaca --enable-libcdio --enable-libcodec2 --enable-libflite --enable-libfontconfig --enable-libfreetype --enable-libfribidi --enable-libgme --enable-libgsm --enable-libjack --enable-libmp3lame --enable-libmysofa --enable-libopenjpeg --enable-libopenmpt --enable-libopus --enable-libpulse --enable-librsvg --enable-librubberband --enable-libshine --enable-libsnappy --enable-libsoxr --enable-libspeex --enable-libssh --enable-libtheora --enable-libtwolame --enable-libvidstab --enable-libvorbis --enable-libvpx --enable-libwavpack --enable-libwebp --enable-libx265 --enable-libxml2 --enable-libxvid --enable-libzmq --enable-libzvbi --enable-lv2 --enable-omx --enable-openal --enable-opengl --enable-sdl2 --enable-omx-rpi --enable-mmal --enable-neon --enable-rpi --enable-vout-drm --enable-v4l2-request --enable-libudev --enable-libdc1394 --enable-libdrm --enable-libiec61883 --enable-chromaprint --enable-frei0r --enable-libx264 --libdir=/usr/lib/arm-linux-gnueabihf/neon/vfp --cpu=cortex-a7 --arch=armv6t2 --disable-thumb --enable-shared --disable-doc --disable-programs\r\n",
      "  avformat    configuration: --prefix=/usr --extra-version=0+deb10u1+rpt1 --toolchain=hardened --incdir=/usr/include/arm-linux-gnueabihf --enable-gpl --disable-stripping --enable-avresample --disable-filter=resample --enable-avisynth --enable-gnutls --enable-ladspa --enable-libaom --enable-libass --enable-libbluray --enable-libbs2b --enable-libcaca --enable-libcdio --enable-libcodec2 --enable-libflite --enable-libfontconfig --enable-libfreetype --enable-libfribidi --enable-libgme --enable-libgsm --enable-libjack --enable-libmp3lame --enable-libmysofa --enable-libopenjpeg --enable-libopenmpt --enable-libopus --enable-libpulse --enable-librsvg --enable-librubberband --enable-libshine --enable-libsnappy --enable-libsoxr --enable-libspeex --enable-libssh --enable-libtheora --enable-libtwolame --enable-libvidstab --enable-libvorbis --enable-libvpx --enable-libwavpack --enable-libwebp --enable-libx265 --enable-libxml2 --enable-libxvid --enable-libzmq --enable-libzvbi --enable-lv2 --enable-omx --enable-openal --enable-opengl --enable-sdl2 --enable-omx-rpi --enable-mmal --enable-neon --enable-rpi --enable-vout-drm --enable-v4l2-request --enable-libudev --enable-libdc1394 --enable-libdrm --enable-libiec61883 --enable-chromaprint --enable-frei0r --enable-libx264 --libdir=/usr/lib/arm-linux-gnueabihf/neon/vfp --cpu=cortex-a7 --arch=armv6t2 --disable-thumb --enable-shared --disable-doc --disable-programs\r\n",
      "  avdevice    configuration: --prefix=/usr --extra-version=0+deb10u1+rpt1 --toolchain=hardened --incdir=/usr/include/arm-linux-gnueabihf --enable-gpl --disable-stripping --enable-avresample --disable-filter=resample --enable-avisynth --enable-gnutls --enable-ladspa --enable-libaom --enable-libass --enable-libbluray --enable-libbs2b --enable-libcaca --enable-libcdio --enable-libcodec2 --enable-libflite --enable-libfontconfig --enable-libfreetype --enable-libfribidi --enable-libgme --enable-libgsm --enable-libjack --enable-libmp3lame --enable-libmysofa --enable-libopenjpeg --enable-libopenmpt --enable-libopus --enable-libpulse --enable-librsvg --enable-librubberband --enable-libshine --enable-libsnappy --enable-libsoxr --enable-libspeex --enable-libssh --enable-libtheora --enable-libtwolame --enable-libvidstab --enable-libvorbis --enable-libvpx --enable-libwavpack --enable-libwebp --enable-libx265 --enable-libxml2 --enable-libxvid --enable-libzmq --enable-libzvbi --enable-lv2 --enable-omx --enable-openal --enable-opengl --enable-sdl2 --enable-omx-rpi --enable-mmal --enable-neon --enable-rpi --enable-vout-drm --enable-v4l2-request --enable-libudev --enable-libdc1394 --enable-libdrm --enable-libiec61883 --enable-chromaprint --enable-frei0r --enable-libx264 --libdir=/usr/lib/arm-linux-gnueabihf/neon/vfp --cpu=cortex-a7 --arch=armv6t2 --disable-thumb --enable-shared --disable-doc --disable-programs\r\n",
      "  avfilter    configuration: --prefix=/usr --extra-version=0+deb10u1+rpt1 --toolchain=hardened --incdir=/usr/include/arm-linux-gnueabihf --enable-gpl --disable-stripping --enable-avresample --disable-filter=resample --enable-avisynth --enable-gnutls --enable-ladspa --enable-libaom --enable-libass --enable-libbluray --enable-libbs2b --enable-libcaca --enable-libcdio --enable-libcodec2 --enable-libflite --enable-libfontconfig --enable-libfreetype --enable-libfribidi --enable-libgme --enable-libgsm --enable-libjack --enable-libmp3lame --enable-libmysofa --enable-libopenjpeg --enable-libopenmpt --enable-libopus --enable-libpulse --enable-librsvg --enable-librubberband --enable-libshine --enable-libsnappy --enable-libsoxr --enable-libspeex --enable-libssh --enable-libtheora --enable-libtwolame --enable-libvidstab --enable-libvorbis --enable-libvpx --enable-libwavpack --enable-libwebp --enable-libx265 --enable-libxml2 --enable-libxvid --enable-libzmq --enable-libzvbi --enable-lv2 --enable-omx --enable-openal --enable-opengl --enable-sdl2 --enable-omx-rpi --enable-mmal --enable-neon --enable-rpi --enable-vout-drm --enable-v4l2-request --enable-libudev --enable-libdc1394 --enable-libdrm --enable-libiec61883 --enable-chromaprint --enable-frei0r --enable-libx264 --libdir=/usr/lib/arm-linux-gnueabihf/neon/vfp --cpu=cortex-a7 --arch=armv6t2 --disable-thumb --enable-shared --disable-doc --disable-programs\r\n",
      "  avresample  configuration: --prefix=/usr --extra-version=0+deb10u1+rpt1 --toolchain=hardened --incdir=/usr/include/arm-linux-gnueabihf --enable-gpl --disable-stripping --enable-avresample --disable-filter=resample --enable-avisynth --enable-gnutls --enable-ladspa --enable-libaom --enable-libass --enable-libbluray --enable-libbs2b --enable-libcaca --enable-libcdio --enable-libcodec2 --enable-libflite --enable-libfontconfig --enable-libfreetype --enable-libfribidi --enable-libgme --enable-libgsm --enable-libjack --enable-libmp3lame --enable-libmysofa --enable-libopenjpeg --enable-libopenmpt --enable-libopus --enable-libpulse --enable-librsvg --enable-librubberband --enable-libshine --enable-libsnappy --enable-libsoxr --enable-libspeex --enable-libssh --enable-libtheora --enable-libtwolame --enable-libvidstab --enable-libvorbis --enable-libvpx --enable-libwavpack --enable-libwebp --enable-libx265 --enable-libxml2 --enable-libxvid --enable-libzmq --enable-libzvbi --enable-lv2 --enable-omx --enable-openal --enable-opengl --enable-sdl2 --enable-omx-rpi --enable-mmal --enable-neon --enable-rpi --enable-vout-drm --enable-v4l2-request --enable-libudev --enable-libdc1394 --enable-libdrm --enable-libiec61883 --enable-chromaprint --enable-frei0r --enable-libx264 --libdir=/usr/lib/arm-linux-gnueabihf/neon/vfp --cpu=cortex-a7 --arch=armv6t2 --disable-thumb --enable-shared --disable-doc --disable-programs\r\n",
      "  swscale     configuration: --prefix=/usr --extra-version=0+deb10u1+rpt1 --toolchain=hardened --incdir=/usr/include/arm-linux-gnueabihf --enable-gpl --disable-stripping --enable-avresample --disable-filter=resample --enable-avisynth --enable-gnutls --enable-ladspa --enable-libaom --enable-libass --enable-libbluray --enable-libbs2b --enable-libcaca --enable-libcdio --enable-libcodec2 --enable-libflite --enable-libfontconfig --enable-libfreetype --enable-libfribidi --enable-libgme --enable-libgsm --enable-libjack --enable-libmp3lame --enable-libmysofa --enable-libopenjpeg --enable-libopenmpt --enable-libopus --enable-libpulse --enable-librsvg --enable-librubberband --enable-libshine --enable-libsnappy --enable-libsoxr --enable-libspeex --enable-libssh --enable-libtheora --enable-libtwolame --enable-libvidstab --enable-libvorbis --enable-libvpx --enable-libwavpack --enable-libwebp --enable-libx265 --enable-libxml2 --enable-libxvid --enable-libzmq --enable-libzvbi --enable-lv2 --enable-omx --enable-openal --enable-opengl --enable-sdl2 --enable-omx-rpi --enable-mmal --enable-neon --enable-rpi --enable-vout-drm --enable-v4l2-request --enable-libudev --enable-libdc1394 --enable-libdrm --enable-libiec61883 --enable-chromaprint --enable-frei0r --enable-libx264 --libdir=/usr/lib/arm-linux-gnueabihf/neon/vfp --cpu=cortex-a7 --arch=armv6t2 --disable-thumb --enable-shared --disable-doc --disable-programs\r\n",
      "  swresample  configuration: --prefix=/usr --extra-version=0+deb10u1+rpt1 --toolchain=hardened --incdir=/usr/include/arm-linux-gnueabihf --enable-gpl --disable-stripping --enable-avresample --disable-filter=resample --enable-avisynth --enable-gnutls --enable-ladspa --enable-libaom --enable-libass --enable-libbluray --enable-libbs2b --enable-libcaca --enable-libcdio --enable-libcodec2 --enable-libflite --enable-libfontconfig --enable-libfreetype --enable-libfribidi --enable-libgme --enable-libgsm --enable-libjack --enable-libmp3lame --enable-libmysofa --enable-libopenjpeg --enable-libopenmpt --enable-libopus --enable-libpulse --enable-librsvg --enable-librubberband --enable-libshine --enable-libsnappy --enable-libsoxr --enable-libspeex --enable-libssh --enable-libtheora --enable-libtwolame --enable-libvidstab --enable-libvorbis --enable-libvpx --enable-libwavpack --enable-libwebp --enable-libx265 --enable-libxml2 --enable-libxvid --enable-libzmq --enable-libzvbi --enable-lv2 --enable-omx --enable-openal --enable-opengl --enable-sdl2 --enable-omx-rpi --enable-mmal --enable-neon --enable-rpi --enable-vout-drm --enable-v4l2-request --enable-libudev --enable-libdc1394 --enable-libdrm --enable-libiec61883 --enable-chromaprint --enable-frei0r --enable-libx264 --libdir=/usr/lib/arm-linux-gnueabihf/neon/vfp --cpu=cortex-a7 --arch=armv6t2 --disable-thumb --enable-shared --disable-doc --disable-programs\r\n",
      "  postproc    configuration: --prefix=/usr --extra-version=0+deb10u1+rpt1 --toolchain=hardened --incdir=/usr/include/arm-linux-gnueabihf --enable-gpl --disable-stripping --enable-avresample --disable-filter=resample --enable-avisynth --enable-gnutls --enable-ladspa --enable-libaom --enable-libass --enable-libbluray --enable-libbs2b --enable-libcaca --enable-libcdio --enable-libcodec2 --enable-libflite --enable-libfontconfig --enable-libfreetype --enable-libfribidi --enable-libgme --enable-libgsm --enable-libjack --enable-libmp3lame --enable-libmysofa --enable-libopenjpeg --enable-libopenmpt --enable-libopus --enable-libpulse --enable-librsvg --enable-librubberband --enable-libshine --enable-libsnappy --enable-libsoxr --enable-libspeex --enable-libssh --enable-libtheora --enable-libtwolame --enable-libvidstab --enable-libvorbis --enable-libvpx --enable-libwavpack --enable-libwebp --enable-libx265 --enable-libxml2 --enable-libxvid --enable-libzmq --enable-libzvbi --enable-lv2 --enable-omx --enable-openal --enable-opengl --enable-sdl2 --enable-omx-rpi --enable-mmal --enable-neon --enable-rpi --enable-vout-drm --enable-v4l2-request --enable-libudev --enable-libdc1394 --enable-libdrm --enable-libiec61883 --enable-chromaprint --enable-frei0r --enable-libx264 --libdir=/usr/lib/arm-linux-gnueabihf/neon/vfp --cpu=cortex-a7 --arch=armv6t2 --disable-thumb --enable-shared --disable-doc --disable-programs\r\n",
      "  libavutil      56. 22.100 / 56. 22.100\r\n",
      "  libavcodec     58. 35.100 / 58. 35.100\r\n",
      "  libavformat    58. 20.100 / 58. 20.100\r\n",
      "  libavdevice    58.  5.100 / 58.  5.100\r\n",
      "  libavfilter     7. 40.101 /  7. 40.101\r\n",
      "  libavresample   4.  0.  0 /  4.  0.  0\r\n",
      "  libswscale      5.  3.100 /  5.  3.100\r\n",
      "  libswresample   3.  3.100 /  3.  3.100\r\n",
      "  libpostproc    55.  3.100 / 55.  3.100\r\n"
     ]
    },
    {
     "name": "stdout",
     "output_type": "stream",
     "text": [
      "Input #0, video4linux2,v4l2, from '/dev/video1':\n",
      "  Duration: N/A, start: 2408.524370, bitrate: 73728 kb/s\n",
      "    Stream #0:0: Video: rawvideo (YUY2 / 0x32595559), yuyv422, 640x480, 73728 kb/s, 15 fps, 15 tbr, 1000k tbn, 1000k tbc\n",
      "\u001b[0;33mCodec AVOption tune (Tune the encoding to a specific scenario) specified for output file #0 (rtmp://broadcast.api.video/s/0b4ed07a-cd94-4ef0-bf6c-a84937c30138) has not been used for any stream. The most likely reason is either wrong type (e.g. a video option with no video streams) or that it is a private option of some encoder which was not actually used for any stream.\n",
      "\u001b[0m\u001b[0;33mCodec AVOption preset (Configuration preset) specified for output file #0 (rtmp://broadcast.api.video/s/0b4ed07a-cd94-4ef0-bf6c-a84937c30138) has not been used for any stream. The most likely reason is either wrong type (e.g. a video option with no video streams) or that it is a private option of some encoder which was not actually used for any stream.\n",
      "\u001b[0mStream mapping:\n",
      "  Stream #0:0 -> #0:0 (rawvideo (native) -> flv1 (flv))\n",
      "Press [q] to stop, [?] for help\n",
      "Output #0, flv, to 'rtmp://broadcast.api.video/s/0b4ed07a-cd94-4ef0-bf6c-a84937c30138':\n",
      "  Metadata:\n",
      "    encoder         : Lavf58.20.100\n",
      "    Stream #0:0: Video: flv1 (flv) ([2][0][0][0] / 0x0002), yuv420p, 640x480, q=2-31, 200 kb/s, 15 fps, 1k tbn, 15 tbc\n",
      "    Metadata:\n",
      "      encoder         : Lavc58.35.100 flv\n",
      "    Side data:\n",
      "      cpb: bitrate max/min/avg: 0/0/200000 buffer size: 0 vbv_delay: -1\n",
      "\u001b[1;35m[flv @ 0x1d5cd20] \u001b[0m\u001b[0;33mFailed to update header with correct duration.peed=   1x      \n",
      "\u001b[0m\u001b[1;35m[flv @ 0x1d5cd20] \u001b[0m\u001b[0;33mFailed to update header with correct filesize.\n",
      "\u001b[0mframe= 1487 fps= 10 q=6.9 Lsize=    3679kB time=00:02:28.73 bitrate= 202.6kbits/s speed=   1x    \n",
      "video:3656kB audio:0kB subtitle:0kB other streams:0kB global headers:0kB muxing overhead: 0.641202%\n",
      "Exiting normally, received signal 2.\n"
     ]
    }
   ],
   "source": [
    "! ffmpeg -re -i /dev/video1  -g 50 -preset ultrafast -tune zerolatency -f flv rtmp://broadcast.api.video/s/0b4ed07a-cd94-4ef0-bf6c-a84937c30138\n",
    "\n"
   ]
  },
  {
   "cell_type": "code",
   "execution_count": 4,
   "id": "5f68a8d4",
   "metadata": {},
   "outputs": [
    {
     "name": "stdout",
     "output_type": "stream",
     "text": [
      "\u001b[0;35m[video4linux2,v4l2 @ 0x532370] \u001b[0mThe driver changed the time per frame from 1/20 to 1/15\n",
      "Input #0, video4linux2,v4l2, from '/dev/video1':\n",
      "  Duration: N/A, start: 1651.356621, bitrate: 73728 kb/s\n",
      "    Stream #0:0: Video: rawvideo (YUY2 / 0x32595559), yuyv422, 640x480, 73728 kb/s, 15 fps, 15 tbr, 1000k tbn, 1000k tbc\n",
      "\u001b[1;31mrtmp://57657ade3771422db2f10cd29d0010c7.channel.media.azure.net:1935/live/1b8bfb681c0b4f0c8091160c5f93bbb9/stream1: Input/output error\n",
      "\u001b[0m"
     ]
    }
   ],
   "source": [
    "! ffmpeg -analyzeduration 0 -an -re -input_format yuyv422 -f v4l2 -r 20 -i /dev/video1 -c:v libx264 -pix_fmt yuv420p -vf format=yuv420p -preset ultrafast -tune zerolatency -g 20 -tune zerolatency -hide_banner  -b:v 10000k -bufsize 512k -f flv rtmp://57657ade3771422db2f10cd29d0010c7.channel.media.azure.net:1935/live/1b8bfb681c0b4f0c8091160c5f93bbb9/stream1\n"
   ]
  },
  {
   "cell_type": "code",
   "execution_count": null,
   "id": "852bbdff",
   "metadata": {},
   "outputs": [],
   "source": [
    "! ffmpeg -f alsa -ac 2 -input_format yuyv422 -f v4l2 -r 10 -i /dev/video1 -c:v libx264 -pix_fmt yuv420p -vf format=yuv420p -preset ultrafast -g 20 -c:a aac -ar 44100 -threads 0 -bufsize 512k -f flv rtmp://broadcast.api.video/s/db9984ac-4056-4405-89a6-882480dbe757\n"
   ]
  },
  {
   "cell_type": "code",
   "execution_count": null,
   "id": "b7198b54",
   "metadata": {},
   "outputs": [],
   "source": [
    "!raspivid -o - -t 3540000  -fps 25 -g 50 -b 4400000 | ffmpeg -re -i - -vcodec copy -g 50 -preset ultrafast -tune zerolatency -f flv rtmp://broadcast.api.video/s/"
   ]
  },
  {
   "cell_type": "code",
   "execution_count": null,
   "id": "15e84761",
   "metadata": {},
   "outputs": [],
   "source": [
    "! ffmpeg -f alsa -ac 2 -input_format yuyv422 -f v4l2 -r 10 -i /dev/video1 -c:v libx264 -pix_fmt yuv420p -vf format=yuv420p -preset ultrafast -g 20 -b:v 2500k -c:a aac -ar 44100 -threads 0 -hide_banner -bufsize 512k -f mpegts \"udp://192.168.137.134:5000/live/stream\""
   ]
  },
  {
   "cell_type": "code",
   "execution_count": null,
   "id": "b27a4629",
   "metadata": {},
   "outputs": [],
   "source": [
    "!ffmpeg -f v4l2 -s 320x240 -r 25 -i /dev/video1 -f alsa -ac 1 -i hw:0 http://localhost:8090/feed1.ffm"
   ]
  },
  {
   "cell_type": "code",
   "execution_count": null,
   "id": "958cfc2f",
   "metadata": {},
   "outputs": [],
   "source": [
    "!ffmpeg -re -f lavfi -i aevalsrc=\"sin(400*2*PI*t)\" -ar 8000 -f mulaw -f rtp rtp://127.0.0.1:2345"
   ]
  },
  {
   "cell_type": "code",
   "execution_count": null,
   "id": "695b9a49",
   "metadata": {},
   "outputs": [],
   "source": [
    "!ffplay rtp://localhost:1234"
   ]
  },
  {
   "cell_type": "code",
   "execution_count": 11,
   "id": "f3e5394f",
   "metadata": {},
   "outputs": [
    {
     "name": "stdout",
     "output_type": "stream",
     "text": [
      "\u001b[0;35m[video4linux2,v4l2 @ 0x1d1f330] \u001b[0m\u001b[1;31mioctl(VIDIOC_G_INPUT): Inappropriate ioctl for device\r\n",
      "\u001b[0m\u001b[1;31m/dev/video1: Inappropriate ioctl for device\r\n",
      "\u001b[0m"
     ]
    }
   ],
   "source": [
    "! ffmpeg -f alsa -input_format yuyv422 -f v4l2 -r 10 -i /dev/video1 -c:v libx264 -pix_fmt yuv420p -vf format=yuv420p -preset ultrafast -tune zerolatency -g 50 -b:v 2500k -threads 0 -hide_banner -bufsize 512k -f flv rtmp://broadcast.api.video/s/cf8c6433-aa6e-4512-8d9a-1b599e2a519a\n",
    "\n"
   ]
  },
  {
   "cell_type": "code",
   "execution_count": 12,
   "id": "b0bf5be6",
   "metadata": {},
   "outputs": [
    {
     "name": "stdout",
     "output_type": "stream",
     "text": [
      "ffmpeg version 4.1.8-0+deb10u1+rpt1 Copyright (c) 2000-2021 the FFmpeg developers\r\n",
      "  built with gcc 8 (Raspbian 8.3.0-6+rpi1)\r\n",
      "  configuration: --prefix=/usr --extra-version=0+deb10u1+rpt1 --toolchain=hardened --incdir=/usr/include/arm-linux-gnueabihf --enable-gpl --disable-stripping --enable-avresample --disable-filter=resample --enable-avisynth --enable-gnutls --enable-ladspa --enable-libaom --enable-libass --enable-libbluray --enable-libbs2b --enable-libcaca --enable-libcdio --enable-libcodec2 --enable-libflite --enable-libfontconfig --enable-libfreetype --enable-libfribidi --enable-libgme --enable-libgsm --enable-libjack --enable-libmp3lame --enable-libmysofa --enable-libopenjpeg --enable-libopenmpt --enable-libopus --enable-libpulse --enable-librsvg --enable-librubberband --enable-libshine --enable-libsnappy --enable-libsoxr --enable-libspeex --enable-libssh --enable-libtheora --enable-libtwolame --enable-libvidstab --enable-libvorbis --enable-libvpx --enable-libwavpack --enable-libwebp --enable-libx265 --enable-libxml2 --enable-libxvid --enable-libzmq --enable-libzvbi --enable-lv2 --enable-omx --enable-openal --enable-opengl --enable-sdl2 --enable-omx-rpi --enable-mmal --enable-neon --enable-rpi --enable-vout-drm --enable-v4l2-request --enable-libudev --enable-libdc1394 --enable-libdrm --enable-libiec61883 --enable-chromaprint --enable-frei0r --enable-libx264 --enable-shared --libdir=/usr/lib/arm-linux-gnueabihf --cpu=arm1176jzf-s --arch=arm\r\n",
      "  WARNING: library configuration mismatch\r\n",
      "  avutil      configuration: --prefix=/usr --extra-version=0+deb10u1+rpt1 --toolchain=hardened --incdir=/usr/include/arm-linux-gnueabihf --enable-gpl --disable-stripping --enable-avresample --disable-filter=resample --enable-avisynth --enable-gnutls --enable-ladspa --enable-libaom --enable-libass --enable-libbluray --enable-libbs2b --enable-libcaca --enable-libcdio --enable-libcodec2 --enable-libflite --enable-libfontconfig --enable-libfreetype --enable-libfribidi --enable-libgme --enable-libgsm --enable-libjack --enable-libmp3lame --enable-libmysofa --enable-libopenjpeg --enable-libopenmpt --enable-libopus --enable-libpulse --enable-librsvg --enable-librubberband --enable-libshine --enable-libsnappy --enable-libsoxr --enable-libspeex --enable-libssh --enable-libtheora --enable-libtwolame --enable-libvidstab --enable-libvorbis --enable-libvpx --enable-libwavpack --enable-libwebp --enable-libx265 --enable-libxml2 --enable-libxvid --enable-libzmq --enable-libzvbi --enable-lv2 --enable-omx --enable-openal --enable-opengl --enable-sdl2 --enable-omx-rpi --enable-mmal --enable-neon --enable-rpi --enable-vout-drm --enable-v4l2-request --enable-libudev --enable-libdc1394 --enable-libdrm --enable-libiec61883 --enable-chromaprint --enable-frei0r --enable-libx264 --libdir=/usr/lib/arm-linux-gnueabihf/neon/vfp --cpu=cortex-a7 --arch=armv6t2 --disable-thumb --enable-shared --disable-doc --disable-programs\r\n",
      "  avcodec     configuration: --prefix=/usr --extra-version=0+deb10u1+rpt1 --toolchain=hardened --incdir=/usr/include/arm-linux-gnueabihf --enable-gpl --disable-stripping --enable-avresample --disable-filter=resample --enable-avisynth --enable-gnutls --enable-ladspa --enable-libaom --enable-libass --enable-libbluray --enable-libbs2b --enable-libcaca --enable-libcdio --enable-libcodec2 --enable-libflite --enable-libfontconfig --enable-libfreetype --enable-libfribidi --enable-libgme --enable-libgsm --enable-libjack --enable-libmp3lame --enable-libmysofa --enable-libopenjpeg --enable-libopenmpt --enable-libopus --enable-libpulse --enable-librsvg --enable-librubberband --enable-libshine --enable-libsnappy --enable-libsoxr --enable-libspeex --enable-libssh --enable-libtheora --enable-libtwolame --enable-libvidstab --enable-libvorbis --enable-libvpx --enable-libwavpack --enable-libwebp --enable-libx265 --enable-libxml2 --enable-libxvid --enable-libzmq --enable-libzvbi --enable-lv2 --enable-omx --enable-openal --enable-opengl --enable-sdl2 --enable-omx-rpi --enable-mmal --enable-neon --enable-rpi --enable-vout-drm --enable-v4l2-request --enable-libudev --enable-libdc1394 --enable-libdrm --enable-libiec61883 --enable-chromaprint --enable-frei0r --enable-libx264 --libdir=/usr/lib/arm-linux-gnueabihf/neon/vfp --cpu=cortex-a7 --arch=armv6t2 --disable-thumb --enable-shared --disable-doc --disable-programs\r\n",
      "  avformat    configuration: --prefix=/usr --extra-version=0+deb10u1+rpt1 --toolchain=hardened --incdir=/usr/include/arm-linux-gnueabihf --enable-gpl --disable-stripping --enable-avresample --disable-filter=resample --enable-avisynth --enable-gnutls --enable-ladspa --enable-libaom --enable-libass --enable-libbluray --enable-libbs2b --enable-libcaca --enable-libcdio --enable-libcodec2 --enable-libflite --enable-libfontconfig --enable-libfreetype --enable-libfribidi --enable-libgme --enable-libgsm --enable-libjack --enable-libmp3lame --enable-libmysofa --enable-libopenjpeg --enable-libopenmpt --enable-libopus --enable-libpulse --enable-librsvg --enable-librubberband --enable-libshine --enable-libsnappy --enable-libsoxr --enable-libspeex --enable-libssh --enable-libtheora --enable-libtwolame --enable-libvidstab --enable-libvorbis --enable-libvpx --enable-libwavpack --enable-libwebp --enable-libx265 --enable-libxml2 --enable-libxvid --enable-libzmq --enable-libzvbi --enable-lv2 --enable-omx --enable-openal --enable-opengl --enable-sdl2 --enable-omx-rpi --enable-mmal --enable-neon --enable-rpi --enable-vout-drm --enable-v4l2-request --enable-libudev --enable-libdc1394 --enable-libdrm --enable-libiec61883 --enable-chromaprint --enable-frei0r --enable-libx264 --libdir=/usr/lib/arm-linux-gnueabihf/neon/vfp --cpu=cortex-a7 --arch=armv6t2 --disable-thumb --enable-shared --disable-doc --disable-programs\r\n",
      "  avdevice    configuration: --prefix=/usr --extra-version=0+deb10u1+rpt1 --toolchain=hardened --incdir=/usr/include/arm-linux-gnueabihf --enable-gpl --disable-stripping --enable-avresample --disable-filter=resample --enable-avisynth --enable-gnutls --enable-ladspa --enable-libaom --enable-libass --enable-libbluray --enable-libbs2b --enable-libcaca --enable-libcdio --enable-libcodec2 --enable-libflite --enable-libfontconfig --enable-libfreetype --enable-libfribidi --enable-libgme --enable-libgsm --enable-libjack --enable-libmp3lame --enable-libmysofa --enable-libopenjpeg --enable-libopenmpt --enable-libopus --enable-libpulse --enable-librsvg --enable-librubberband --enable-libshine --enable-libsnappy --enable-libsoxr --enable-libspeex --enable-libssh --enable-libtheora --enable-libtwolame --enable-libvidstab --enable-libvorbis --enable-libvpx --enable-libwavpack --enable-libwebp --enable-libx265 --enable-libxml2 --enable-libxvid --enable-libzmq --enable-libzvbi --enable-lv2 --enable-omx --enable-openal --enable-opengl --enable-sdl2 --enable-omx-rpi --enable-mmal --enable-neon --enable-rpi --enable-vout-drm --enable-v4l2-request --enable-libudev --enable-libdc1394 --enable-libdrm --enable-libiec61883 --enable-chromaprint --enable-frei0r --enable-libx264 --libdir=/usr/lib/arm-linux-gnueabihf/neon/vfp --cpu=cortex-a7 --arch=armv6t2 --disable-thumb --enable-shared --disable-doc --disable-programs\r\n",
      "  avfilter    configuration: --prefix=/usr --extra-version=0+deb10u1+rpt1 --toolchain=hardened --incdir=/usr/include/arm-linux-gnueabihf --enable-gpl --disable-stripping --enable-avresample --disable-filter=resample --enable-avisynth --enable-gnutls --enable-ladspa --enable-libaom --enable-libass --enable-libbluray --enable-libbs2b --enable-libcaca --enable-libcdio --enable-libcodec2 --enable-libflite --enable-libfontconfig --enable-libfreetype --enable-libfribidi --enable-libgme --enable-libgsm --enable-libjack --enable-libmp3lame --enable-libmysofa --enable-libopenjpeg --enable-libopenmpt --enable-libopus --enable-libpulse --enable-librsvg --enable-librubberband --enable-libshine --enable-libsnappy --enable-libsoxr --enable-libspeex --enable-libssh --enable-libtheora --enable-libtwolame --enable-libvidstab --enable-libvorbis --enable-libvpx --enable-libwavpack --enable-libwebp --enable-libx265 --enable-libxml2 --enable-libxvid --enable-libzmq --enable-libzvbi --enable-lv2 --enable-omx --enable-openal --enable-opengl --enable-sdl2 --enable-omx-rpi --enable-mmal --enable-neon --enable-rpi --enable-vout-drm --enable-v4l2-request --enable-libudev --enable-libdc1394 --enable-libdrm --enable-libiec61883 --enable-chromaprint --enable-frei0r --enable-libx264 --libdir=/usr/lib/arm-linux-gnueabihf/neon/vfp --cpu=cortex-a7 --arch=armv6t2 --disable-thumb --enable-shared --disable-doc --disable-programs\r\n",
      "  avresample  configuration: --prefix=/usr --extra-version=0+deb10u1+rpt1 --toolchain=hardened --incdir=/usr/include/arm-linux-gnueabihf --enable-gpl --disable-stripping --enable-avresample --disable-filter=resample --enable-avisynth --enable-gnutls --enable-ladspa --enable-libaom --enable-libass --enable-libbluray --enable-libbs2b --enable-libcaca --enable-libcdio --enable-libcodec2 --enable-libflite --enable-libfontconfig --enable-libfreetype --enable-libfribidi --enable-libgme --enable-libgsm --enable-libjack --enable-libmp3lame --enable-libmysofa --enable-libopenjpeg --enable-libopenmpt --enable-libopus --enable-libpulse --enable-librsvg --enable-librubberband --enable-libshine --enable-libsnappy --enable-libsoxr --enable-libspeex --enable-libssh --enable-libtheora --enable-libtwolame --enable-libvidstab --enable-libvorbis --enable-libvpx --enable-libwavpack --enable-libwebp --enable-libx265 --enable-libxml2 --enable-libxvid --enable-libzmq --enable-libzvbi --enable-lv2 --enable-omx --enable-openal --enable-opengl --enable-sdl2 --enable-omx-rpi --enable-mmal --enable-neon --enable-rpi --enable-vout-drm --enable-v4l2-request --enable-libudev --enable-libdc1394 --enable-libdrm --enable-libiec61883 --enable-chromaprint --enable-frei0r --enable-libx264 --libdir=/usr/lib/arm-linux-gnueabihf/neon/vfp --cpu=cortex-a7 --arch=armv6t2 --disable-thumb --enable-shared --disable-doc --disable-programs\r\n",
      "  swscale     configuration: --prefix=/usr --extra-version=0+deb10u1+rpt1 --toolchain=hardened --incdir=/usr/include/arm-linux-gnueabihf --enable-gpl --disable-stripping --enable-avresample --disable-filter=resample --enable-avisynth --enable-gnutls --enable-ladspa --enable-libaom --enable-libass --enable-libbluray --enable-libbs2b --enable-libcaca --enable-libcdio --enable-libcodec2 --enable-libflite --enable-libfontconfig --enable-libfreetype --enable-libfribidi --enable-libgme --enable-libgsm --enable-libjack --enable-libmp3lame --enable-libmysofa --enable-libopenjpeg --enable-libopenmpt --enable-libopus --enable-libpulse --enable-librsvg --enable-librubberband --enable-libshine --enable-libsnappy --enable-libsoxr --enable-libspeex --enable-libssh --enable-libtheora --enable-libtwolame --enable-libvidstab --enable-libvorbis --enable-libvpx --enable-libwavpack --enable-libwebp --enable-libx265 --enable-libxml2 --enable-libxvid --enable-libzmq --enable-libzvbi --enable-lv2 --enable-omx --enable-openal --enable-opengl --enable-sdl2 --enable-omx-rpi --enable-mmal --enable-neon --enable-rpi --enable-vout-drm --enable-v4l2-request --enable-libudev --enable-libdc1394 --enable-libdrm --enable-libiec61883 --enable-chromaprint --enable-frei0r --enable-libx264 --libdir=/usr/lib/arm-linux-gnueabihf/neon/vfp --cpu=cortex-a7 --arch=armv6t2 --disable-thumb --enable-shared --disable-doc --disable-programs\r\n",
      "  swresample  configuration: --prefix=/usr --extra-version=0+deb10u1+rpt1 --toolchain=hardened --incdir=/usr/include/arm-linux-gnueabihf --enable-gpl --disable-stripping --enable-avresample --disable-filter=resample --enable-avisynth --enable-gnutls --enable-ladspa --enable-libaom --enable-libass --enable-libbluray --enable-libbs2b --enable-libcaca --enable-libcdio --enable-libcodec2 --enable-libflite --enable-libfontconfig --enable-libfreetype --enable-libfribidi --enable-libgme --enable-libgsm --enable-libjack --enable-libmp3lame --enable-libmysofa --enable-libopenjpeg --enable-libopenmpt --enable-libopus --enable-libpulse --enable-librsvg --enable-librubberband --enable-libshine --enable-libsnappy --enable-libsoxr --enable-libspeex --enable-libssh --enable-libtheora --enable-libtwolame --enable-libvidstab --enable-libvorbis --enable-libvpx --enable-libwavpack --enable-libwebp --enable-libx265 --enable-libxml2 --enable-libxvid --enable-libzmq --enable-libzvbi --enable-lv2 --enable-omx --enable-openal --enable-opengl --enable-sdl2 --enable-omx-rpi --enable-mmal --enable-neon --enable-rpi --enable-vout-drm --enable-v4l2-request --enable-libudev --enable-libdc1394 --enable-libdrm --enable-libiec61883 --enable-chromaprint --enable-frei0r --enable-libx264 --libdir=/usr/lib/arm-linux-gnueabihf/neon/vfp --cpu=cortex-a7 --arch=armv6t2 --disable-thumb --enable-shared --disable-doc --disable-programs\r\n",
      "  postproc    configuration: --prefix=/usr --extra-version=0+deb10u1+rpt1 --toolchain=hardened --incdir=/usr/include/arm-linux-gnueabihf --enable-gpl --disable-stripping --enable-avresample --disable-filter=resample --enable-avisynth --enable-gnutls --enable-ladspa --enable-libaom --enable-libass --enable-libbluray --enable-libbs2b --enable-libcaca --enable-libcdio --enable-libcodec2 --enable-libflite --enable-libfontconfig --enable-libfreetype --enable-libfribidi --enable-libgme --enable-libgsm --enable-libjack --enable-libmp3lame --enable-libmysofa --enable-libopenjpeg --enable-libopenmpt --enable-libopus --enable-libpulse --enable-librsvg --enable-librubberband --enable-libshine --enable-libsnappy --enable-libsoxr --enable-libspeex --enable-libssh --enable-libtheora --enable-libtwolame --enable-libvidstab --enable-libvorbis --enable-libvpx --enable-libwavpack --enable-libwebp --enable-libx265 --enable-libxml2 --enable-libxvid --enable-libzmq --enable-libzvbi --enable-lv2 --enable-omx --enable-openal --enable-opengl --enable-sdl2 --enable-omx-rpi --enable-mmal --enable-neon --enable-rpi --enable-vout-drm --enable-v4l2-request --enable-libudev --enable-libdc1394 --enable-libdrm --enable-libiec61883 --enable-chromaprint --enable-frei0r --enable-libx264 --libdir=/usr/lib/arm-linux-gnueabihf/neon/vfp --cpu=cortex-a7 --arch=armv6t2 --disable-thumb --enable-shared --disable-doc --disable-programs\r\n",
      "  libavutil      56. 22.100 / 56. 22.100\r\n",
      "  libavcodec     58. 35.100 / 58. 35.100\r\n",
      "  libavformat    58. 20.100 / 58. 20.100\r\n",
      "  libavdevice    58.  5.100 / 58.  5.100\r\n",
      "  libavfilter     7. 40.101 /  7. 40.101\r\n",
      "  libavresample   4.  0.  0 /  4.  0.  0\r\n",
      "  libswscale      5.  3.100 /  5.  3.100\r\n",
      "  libswresample   3.  3.100 /  3.  3.100\r\n",
      "  libpostproc    55.  3.100 / 55.  3.100\r\n",
      "\u001b[1;31m/dev/video0: Device or resource busy\r\n",
      "\u001b[0m"
     ]
    }
   ],
   "source": [
    "!ffmpeg   input_format yuyv422 -i /dev/video0  -f v4l2 -pix_fmt yuv420p -video_size 640x480 -framerate 1500  -vcodec libx264 -preset ultrafast -f mp4 rtmp://broadcast.api.video/s/bbed1242-843a-42e1-a399-17cbe73bd543"
   ]
  },
  {
   "cell_type": "code",
   "execution_count": null,
   "id": "94ca1ab9",
   "metadata": {},
   "outputs": [],
   "source": [
    "ffmpeg -y -f rawvideo -pix_fmt yuv420p -video_size %wx%h -framerate %fps -i pipe:0 -vcodec libx264 -preset ultrafast -f mp4 %f.mp4\n"
   ]
  }
 ],
 "metadata": {
  "kernelspec": {
   "display_name": "Python 3 (ipykernel)",
   "language": "python",
   "name": "python3"
  },
  "language_info": {
   "codemirror_mode": {
    "name": "ipython",
    "version": 3
   },
   "file_extension": ".py",
   "mimetype": "text/x-python",
   "name": "python",
   "nbconvert_exporter": "python",
   "pygments_lexer": "ipython3",
   "version": "3.7.3"
  }
 },
 "nbformat": 4,
 "nbformat_minor": 5
}
